<svg viewBox="0 0 1600 1000" xmlns="http://www.w3.org/2000/svg">
  <defs>
    <linearGradient id="sky" x1="0" y1="0" x2="0" y2="1">
      <stop offset="0%" stop-color="#7B9AA1" />
      <stop offset="55%" stop-color="#C9BFA0" />
      <stop offset="100%" stop-color="#F3E9D2" />
    </linearGradient>
  </defs>
  <rect width="1600" height="1000" fill="url(#sky)" />
  <g fill="#2B2015" opacity="0.55">
    <rect x="380" y="360" width="840" height="480" />
    <rect x="340" y="820" width="920" height="30" />
    <polygon points="380,360 800,220 1220,360" />
    <g fill="#F3E9D2" opacity="0.9">
      <rect x="430" y="420" width="50" height="80" />
      <rect x="520" y="420" width="50" height="80" />
      <rect x="610" y="420" width="50" height="80" />
      <rect x="700" y="420" width="50" height="80" />
      <rect x="790" y="420" width="50" height="80" />
      <rect x="880" y="420" width="50" height="80" />
      <rect x="970" y="420" width="50" height="80" />
      <rect x="1060" y="420" width="50" height="80" />
      <rect x="1150" y="420" width="50" height="80" />
      <rect x="430" y="560" width="50" height="80" />
      <rect x="520" y="560" width="50" height="80" />
      <rect x="610" y="560" width="50" height="80" />
      <rect x="700" y="560" width="50" height="80" />
      <rect x="790" y="560" width="50" height="80" />
      <rect x="880" y="560" width="50" height="80" />
      <rect x="970" y="560" width="50" height="80" />
      <rect x="1060" y="560" width="50" height="80" />
      <rect x="1150" y="560" width="50" height="80" />
      <rect x="750" y="700" width="100" height="140" />
    </g>
  </g>
  <text x="800" y="960" font-family="Cinzel, Georgia, serif" font-size="28" letter-spacing="4" fill="#2B2015" text-anchor="middle" opacity="0.5">IMAGEM DO HOTEL — PLACEHOLDER</text>
</svg>
